<mxfile host="app.diagrams.net" agent="Mozilla/5.0 (Windows NT 10.0; Win64; x64) AppleWebKit/537.36 (KHTML, like Gecko) Chrome/128.0.0.0 Safari/537.36" version="24.7.8">
  <diagram name="Page-1" id="2tC8VmPLjtLr1J6G5vQs">
    <mxGraphModel dx="704" dy="626" grid="1" gridSize="10" guides="1" tooltips="1" connect="1" arrows="1" fold="1" page="1" pageScale="1" pageWidth="850" pageHeight="1100" math="0" shadow="0">
      <root>
        <mxCell id="0" />
        <mxCell id="1" parent="0" />
        <mxCell id="pvtO3db3lYFqt5PCmuNX-112" value="" style="rounded=0;whiteSpace=wrap;html=1;fontSize=16;" vertex="1" parent="1">
          <mxGeometry x="232.75" y="210" width="147.25" height="290" as="geometry" />
        </mxCell>
        <mxCell id="pvtO3db3lYFqt5PCmuNX-114" value="stop_callback&lt;div&gt;----------&lt;/div&gt;&lt;div&gt;callback()&lt;/div&gt;" style="ellipse;whiteSpace=wrap;html=1;fontSize=16;" vertex="1" parent="1">
          <mxGeometry x="410" y="230" width="120" height="80" as="geometry" />
        </mxCell>
        <mxCell id="pvtO3db3lYFqt5PCmuNX-116" value="stop_token" style="rounded=1;whiteSpace=wrap;html=1;fontSize=16;" vertex="1" parent="1">
          <mxGeometry x="60" y="320" width="120" height="60" as="geometry" />
        </mxCell>
        <mxCell id="pvtO3db3lYFqt5PCmuNX-117" value="stop_token" style="rounded=1;whiteSpace=wrap;html=1;fontSize=16;" vertex="1" parent="1">
          <mxGeometry x="60" y="400" width="120" height="60" as="geometry" />
        </mxCell>
        <mxCell id="pvtO3db3lYFqt5PCmuNX-118" value="stop_source" style="shape=process;whiteSpace=wrap;html=1;backgroundOutline=1;fontSize=16;" vertex="1" parent="1">
          <mxGeometry x="50.629999999999995" y="220" width="138.75" height="80" as="geometry" />
        </mxCell>
        <mxCell id="pvtO3db3lYFqt5PCmuNX-119" value="&lt;font style=&quot;font-size: 15px;&quot;&gt;isStopped flag, reference count,&lt;/font&gt;&lt;div style=&quot;font-size: 15px;&quot;&gt;&lt;font style=&quot;font-size: 15px;&quot;&gt;other state data&lt;/font&gt;&lt;/div&gt;" style="rounded=0;whiteSpace=wrap;html=1;" vertex="1" parent="1">
          <mxGeometry x="245.25" y="280" width="120" height="60" as="geometry" />
        </mxCell>
        <mxCell id="pvtO3db3lYFqt5PCmuNX-120" value="&lt;span style=&quot;font-size: 15px;&quot;&gt;Callback&lt;/span&gt;&lt;div&gt;&lt;span style=&quot;font-size: 15px;&quot;&gt;Registrations&lt;/span&gt;&lt;/div&gt;&lt;div&gt;&lt;span style=&quot;font-size: 15px;&quot;&gt;----------&lt;/span&gt;&lt;/div&gt;&lt;div&gt;&lt;span style=&quot;font-size: 15px;&quot;&gt;callback_entry&lt;/span&gt;&lt;/div&gt;&lt;div&gt;&lt;span style=&quot;font-size: 15px;&quot;&gt;callback_entry&lt;/span&gt;&lt;/div&gt;" style="rounded=0;whiteSpace=wrap;html=1;" vertex="1" parent="1">
          <mxGeometry x="246.38" y="375" width="120" height="110" as="geometry" />
        </mxCell>
        <mxCell id="pvtO3db3lYFqt5PCmuNX-122" value="&lt;font style=&quot;font-size: 16px;&quot;&gt;Stop-State&lt;/font&gt;" style="text;html=1;align=center;verticalAlign=middle;whiteSpace=wrap;rounded=0;" vertex="1" parent="1">
          <mxGeometry x="252.75" y="230" width="100" height="30" as="geometry" />
        </mxCell>
        <mxCell id="pvtO3db3lYFqt5PCmuNX-123" value="" style="endArrow=classic;html=1;rounded=0;" edge="1" parent="1">
          <mxGeometry width="50" height="50" relative="1" as="geometry">
            <mxPoint x="190" y="260" as="sourcePoint" />
            <mxPoint x="233" y="260" as="targetPoint" />
          </mxGeometry>
        </mxCell>
        <mxCell id="pvtO3db3lYFqt5PCmuNX-124" value="" style="endArrow=classic;html=1;rounded=0;" edge="1" parent="1">
          <mxGeometry width="50" height="50" relative="1" as="geometry">
            <mxPoint x="180" y="350" as="sourcePoint" />
            <mxPoint x="233" y="350" as="targetPoint" />
          </mxGeometry>
        </mxCell>
        <mxCell id="pvtO3db3lYFqt5PCmuNX-125" value="" style="endArrow=classic;html=1;rounded=0;" edge="1" parent="1">
          <mxGeometry width="50" height="50" relative="1" as="geometry">
            <mxPoint x="180" y="430" as="sourcePoint" />
            <mxPoint x="233" y="430" as="targetPoint" />
          </mxGeometry>
        </mxCell>
        <mxCell id="pvtO3db3lYFqt5PCmuNX-126" value="stop_callback&lt;div&gt;----------&lt;/div&gt;&lt;div&gt;callback()&lt;/div&gt;" style="ellipse;whiteSpace=wrap;html=1;fontSize=16;" vertex="1" parent="1">
          <mxGeometry x="416.25" y="340" width="120" height="80" as="geometry" />
        </mxCell>
        <mxCell id="pvtO3db3lYFqt5PCmuNX-127" value="" style="edgeStyle=elbowEdgeStyle;endArrow=classic;html=1;rounded=0;endSize=8;startSize=8;entryX=1;entryY=0.5;entryDx=0;entryDy=0;startArrow=oval;startFill=1;" edge="1" parent="1" target="pvtO3db3lYFqt5PCmuNX-126">
          <mxGeometry width="50" height="50" relative="1" as="geometry">
            <mxPoint x="359" y="452" as="sourcePoint" />
            <mxPoint x="550" y="380" as="targetPoint" />
            <Array as="points">
              <mxPoint x="560" y="420" />
            </Array>
          </mxGeometry>
        </mxCell>
        <mxCell id="pvtO3db3lYFqt5PCmuNX-128" value="" style="edgeStyle=elbowEdgeStyle;endArrow=classic;html=1;rounded=0;endSize=8;startSize=8;entryX=1;entryY=0.5;entryDx=0;entryDy=0;startArrow=oval;startFill=1;" edge="1" parent="1" target="pvtO3db3lYFqt5PCmuNX-114">
          <mxGeometry width="50" height="50" relative="1" as="geometry">
            <mxPoint x="359" y="468" as="sourcePoint" />
            <mxPoint x="533.92" y="270.72" as="targetPoint" />
            <Array as="points">
              <mxPoint x="572" y="370" />
            </Array>
          </mxGeometry>
        </mxCell>
        <mxCell id="pvtO3db3lYFqt5PCmuNX-129" value="" style="endArrow=classic;html=1;rounded=0;entryX=0.996;entryY=0.209;entryDx=0;entryDy=0;entryPerimeter=0;" edge="1" parent="1" target="pvtO3db3lYFqt5PCmuNX-112">
          <mxGeometry width="50" height="50" relative="1" as="geometry">
            <mxPoint x="410" y="270" as="sourcePoint" />
            <mxPoint x="460" y="220" as="targetPoint" />
          </mxGeometry>
        </mxCell>
        <mxCell id="pvtO3db3lYFqt5PCmuNX-130" value="" style="endArrow=classic;html=1;rounded=0;" edge="1" parent="1">
          <mxGeometry width="50" height="50" relative="1" as="geometry">
            <mxPoint x="416" y="380" as="sourcePoint" />
            <mxPoint x="380" y="380" as="targetPoint" />
          </mxGeometry>
        </mxCell>
      </root>
    </mxGraphModel>
  </diagram>
</mxfile>
